<svg xmlns="http://www.w3.org/2000/svg" width="253.68" height="448.29" viewBox="0 0 253.68 448.29"><title>favicon</title><path d="M353.52,480.14H290.31l9-125.21H242.76q-20.92,0-38-.61a86,86,0,0,1-28.91-5.4,76.07,76.07,0,0,1-33.09-23.28,66.87,66.87,0,0,1-13.46-44.12q0-10.12.61-18.49t1.83-18.49l11.18-134.87A85.43,85.43,0,0,1,163.5,59.55a78.66,78.66,0,0,1,44.43-25,129.32,129.32,0,0,1,26.24-2.66H270q20.84,0,37.58.61a85.58,85.58,0,0,1,28.68,5.4,76.07,76.07,0,0,1,33.09,23.28,66.94,66.94,0,0,1,13.39,44.12q0,10.12-.61,18.49t-1.83,18.49ZM317.69,137.06q.61-5.4.91-9.58t.23-8.9A24,24,0,0,0,301,92.94a52.79,52.79,0,0,0-12.55-2.05h-38a110.68,110.68,0,0,0-15.21,1.22,30.43,30.43,0,0,0-20.92,9.81A37.27,37.27,0,0,0,204.73,124l-10.5,126.51q-.61,4.18-.91,9.28v8.67a23.43,23.43,0,0,0,16.43,25.1,67.17,67.17,0,0,0,16.74,2.05H261.4a109.39,109.39,0,0,0,15.21-1.22,31.87,31.87,0,0,0,20.92-9.28,33.32,33.32,0,0,0,9-20.62Z" transform="translate(-129.16 -31.86)"/></svg>