<svg id="Layer_1" data-name="Layer 1" xmlns="http://www.w3.org/2000/svg" viewBox="0 0 278.94 73.84"><defs><style>.cls-1{fill:#0070c0;}</style></defs><title>logo</title><path class="cls-1" d="M29.49,71.53H21.18l1.18-16.46H14.93q-2.75,0-5-.08a11.3,11.3,0,0,1-3.8-.71,10,10,0,0,1-4.35-3.06A8.79,8.79,0,0,1,0,45.42Q0,44.09.09,43t.24-2.43L1.8,22.83a11.23,11.23,0,0,1,2.71-6.59A10.34,10.34,0,0,1,10.35,13a17,17,0,0,1,3.45-.35h4.71q2.74,0,4.94.08a11.25,11.25,0,0,1,3.77.71,10,10,0,0,1,4.35,3.06,8.8,8.8,0,0,1,1.76,5.8q0,1.33-.08,2.43T33,27.16Zm-4.71-45.1q.08-.71.12-1.26t0-1.17a3.15,3.15,0,0,0-2.35-3.37,6.94,6.94,0,0,0-1.65-.27h-5a14.55,14.55,0,0,0-2,.16,4,4,0,0,0-2.75,1.29,4.9,4.9,0,0,0-1.25,2.9L8.55,41.34q-.08.55-.12,1.22V43.7A3.08,3.08,0,0,0,10.59,47a8.83,8.83,0,0,0,2.2.27h4.59a14.38,14.38,0,0,0,2-.16,4.19,4.19,0,0,0,2.75-1.22,4.38,4.38,0,0,0,1.18-2.71Z"/><path class="cls-1" d="M64.16,12.55h8.32L69.65,44.79a11.25,11.25,0,0,1-2.72,6.59,10.34,10.34,0,0,1-5.84,3.29,16.64,16.64,0,0,1-3.41.35H53q-2.75,0-5-.08a11.3,11.3,0,0,1-3.8-.71,10,10,0,0,1-4.28-3,8.79,8.79,0,0,1-1.76-5.8q0-1.33.08-2.43t.24-2.43l2.43-28h8.39L46.67,41.34q-.08.55-.12,1.22V43.7a3.86,3.86,0,0,0,.63,2.2,2.67,2.67,0,0,0,1.75,1.18,14.46,14.46,0,0,0,2.12.2h4.36a15.69,15.69,0,0,0,2.24-.16A4.19,4.19,0,0,0,60.4,45.9a4.38,4.38,0,0,0,1.18-2.71Z"/><path class="cls-1" d="M92.45,12.55q2.74,0,4.94.08a11.26,11.26,0,0,1,3.77.71,10,10,0,0,1,4.35,3.06,8.8,8.8,0,0,1,1.76,5.8q0,1.33-.08,2.43t-.26,2.43l-1.57,17.73a11.25,11.25,0,0,1-2.71,6.59,10.34,10.34,0,0,1-5.84,3.29,16.64,16.64,0,0,1-3.38.33H88.76q-2.75,0-5-.08a11.3,11.3,0,0,1-3.8-.71,10,10,0,0,1-4.35-3.06,8.79,8.79,0,0,1-1.76-5.8q0-2.12.16-4l.31-3.65a11.1,11.1,0,0,1,2.75-6.59,10.53,10.53,0,0,1,5.86-3.18,16.61,16.61,0,0,1,2.86-.31q1.84-.08,6.24-.08h4.24A2.79,2.79,0,0,0,97.93,27a2.37,2.37,0,0,0,.9-1.76q.08-.55.12-1v-.82a2.71,2.71,0,0,0-2.2-2.82,8.06,8.06,0,0,0-2-.27H80.93l.71-7.77ZM97.93,35.3H88.49a14.77,14.77,0,0,0-2.08.16,4,4,0,0,0-2.75,1.33,5.09,5.09,0,0,0-1.18,3,35.12,35.12,0,0,0-.24,3.84A3.15,3.15,0,0,0,84.61,47a7.83,7.83,0,0,0,2,.27h4.91a13.32,13.32,0,0,0,1.84-.16,4.19,4.19,0,0,0,2.75-1.22,4.38,4.38,0,0,0,1.18-2.71Z"/><path class="cls-1" d="M136.46,26.67q.08-.71.12-1.37a10.41,10.41,0,0,0,0-1.29,3.15,3.15,0,0,0-2.35-3.37,6.94,6.94,0,0,0-1.69-.27h-5a14.55,14.55,0,0,0-2,.16q-3.53.39-3.92,4.47L119,55.12h-8.3l2.75-31.93a11.62,11.62,0,0,1,2.71-6.9A10.34,10.34,0,0,1,122,13a17,17,0,0,1,3.45-.35h4.71q2.75,0,4.94.08a11.26,11.26,0,0,1,3.77.71,10,10,0,0,1,4.35,3.06A8.8,8.8,0,0,1,145,22.3q0,1.33-.08,2.71t-.24,2.71l-2.43,27.46h-8.33Z"/><path class="cls-1" d="M153.86.12h8.31l-1.31,12.43h11.3l-.71,7.69H160.24l-1.88,21.1q-.08.55-.12,1.22V43.7a3.08,3.08,0,0,0,2.2,3.29,5.48,5.48,0,0,0,1.57.2l2.59.08h4.55L168.44,55h-3.18q-1.84,0-3.65-.08t-3.33-.24a9,9,0,0,1-2.31-.47,10,10,0,0,1-4.35-3.06,8.79,8.79,0,0,1-1.77-5.8q0-1.33.08-2.43t.24-2.43Z"/><path class="cls-1" d="M188.06,55.07q-2.75,0-4.94-.08a11.19,11.19,0,0,1-3.77-.71A10,10,0,0,1,175,51.22a8.79,8.79,0,0,1-1.76-5.8q0-1.33.08-2.43t.24-2.43l1.57-17.73a11.23,11.23,0,0,1,2.71-6.59,10.34,10.34,0,0,1,5.84-3.29,16.8,16.8,0,0,1,3.41-.35h4.67q2.75,0,5,.08a11.36,11.36,0,0,1,3.8.71,10,10,0,0,1,4.37,3,8.8,8.8,0,0,1,1.76,5.8q0,1.33-.2,3.45t-.43,4.16a11.25,11.25,0,0,1-2.71,6.59,10.34,10.34,0,0,1-5.84,3.29,5.56,5.56,0,0,1-1.22.2L194.6,40q-1,.08-2.51.08H181.93l-.16,1.33q-.08.86-.12,1.61v1.14A2.71,2.71,0,0,0,183.83,47a8,8,0,0,0,2,.27h14.23L199.35,55Zm-5.49-22.75h9.36a14.61,14.61,0,0,0,2.08-.16,4,4,0,0,0,2.75-1.33,5.1,5.1,0,0,0,1.18-3q.16-1.1.24-2.08t.08-1.76a3.15,3.15,0,0,0-2.33-3.36,7.89,7.89,0,0,0-2-.27H189a13.48,13.48,0,0,0-1.84.16,4.19,4.19,0,0,0-2.75,1.22,4.36,4.36,0,0,0-1.18,2.71Z"/><path class="cls-1" d="M240.78,44.79a11.25,11.25,0,0,1-2.71,6.59,10.34,10.34,0,0,1-5.84,3.29,16.63,16.63,0,0,1-3.41.35h-4.67q-2.75,0-5-.08a11.3,11.3,0,0,1-3.8-.71A10,10,0,0,1,211,51.17a8.79,8.79,0,0,1-1.76-5.8q0-1.33.08-2.43t.24-2.43l1.49-17.73a11.23,11.23,0,0,1,2.71-6.59,10.34,10.34,0,0,1,5.84-3.29,17,17,0,0,1,3.45-.35h12.24L236.39,0h8.32ZM234,26.43q.08-.71.12-1.26a8.71,8.71,0,0,0,0-1.18,3.15,3.15,0,0,0-2.35-3.37,6.94,6.94,0,0,0-1.69-.27h-5a14.55,14.55,0,0,0-2,.16,4,4,0,0,0-2.75,1.29,4.9,4.9,0,0,0-1.18,2.94l-1.41,16.63q-.08.55-.12,1.18v1.1A3.15,3.15,0,0,0,220,47a7.83,7.83,0,0,0,2,.27h4.93a13.32,13.32,0,0,0,1.84-.16,4.19,4.19,0,0,0,2.75-1.22,4.38,4.38,0,0,0,1.18-2.71Z"/><path class="cls-1" d="M264.06,12.55q2.75,0,4.94.08a11.25,11.25,0,0,1,3.77.71,10,10,0,0,1,4.35,3.06,8.8,8.8,0,0,1,1.81,5.8q0,1.33-.08,2.43t-.24,2.43L277,44.79a11.25,11.25,0,0,1-2.71,6.59,10.34,10.34,0,0,1-5.84,3.29,16.64,16.64,0,0,1-3.41.35h-4.67q-2.75,0-5-.08a11.3,11.3,0,0,1-3.8-.71,10,10,0,0,1-4.35-3.06,8.79,8.79,0,0,1-1.76-5.8q0-2.12.16-4l.31-3.65a11.1,11.1,0,0,1,2.75-6.59,10.53,10.53,0,0,1,5.88-3.29,16.61,16.61,0,0,1,2.86-.31q1.84-.08,6.24-.08h4.23a2.79,2.79,0,0,0,1.61-.51,2.37,2.37,0,0,0,.9-1.76q.08-.55.12-1a4.2,4.2,0,0,0,0-.82,2.71,2.71,0,0,0-2.2-2.82,8.06,8.06,0,0,0-2-.27H252.53l.71-7.77Zm5.49,22.75H260.1a14.77,14.77,0,0,0-2.08.16,4,4,0,0,0-2.75,1.33,5.09,5.09,0,0,0-1.18,3,35.06,35.06,0,0,0-.24,3.84A3.15,3.15,0,0,0,256.22,47a7.83,7.83,0,0,0,2,.27h4.91a13.32,13.32,0,0,0,1.84-.16,4.19,4.19,0,0,0,2.75-1.22,4.38,4.38,0,0,0,1.21-2.71Z"/><path class="cls-1" d="M42.76,69.58a1.79,1.79,0,0,1-.34,1.13,1.47,1.47,0,0,1-.88.55l-.35.06L41.52,73H40.36l-.22-1.62H38.06l-.36-.05a1.47,1.47,0,0,1-.88-.55,1.79,1.79,0,0,1-.34-1.13V62.87a1.79,1.79,0,0,1,.34-1.13,1.47,1.47,0,0,1,.88-.55,5.79,5.79,0,0,1,.84-.08h2.18a5.8,5.8,0,0,1,.84.08,1.47,1.47,0,0,1,.88.55,1.79,1.79,0,0,1,.34,1.13Zm-3.15.79h1.24a1,1,0,0,0,.61-.3,1.09,1.09,0,0,0,.19-.71V63.13a1.09,1.09,0,0,0-.19-.71,1,1,0,0,0-.61-.3H38.4a1,1,0,0,0-.61.3,1.09,1.09,0,0,0-.19.71v6.19a1.09,1.09,0,0,0,.19.71,1,1,0,0,0,.61.3H39Z"/><path class="cls-1" d="M50.84,63.44v6.31a1.82,1.82,0,0,1-.38,1,1.73,1.73,0,0,1-.76.53,2.86,2.86,0,0,1-.75.14H47.09a2.85,2.85,0,0,1-.75-.14,1.73,1.73,0,0,1-.76-.53,1.82,1.82,0,0,1-.38-1V63.44h1v6a.92.92,0,0,0,.69.92,1.57,1.57,0,0,0,.45.07h1.28a1.58,1.58,0,0,0,.45-.07.92.92,0,0,0,.69-.92v-6Z"/><path class="cls-1" d="M55.87,63.44h.93a2.87,2.87,0,0,1,.75.14,1.73,1.73,0,0,1,.76.53,1.82,1.82,0,0,1,.38,1v4.54a1.82,1.82,0,0,1-.38,1,1.73,1.73,0,0,1-.76.53,2.87,2.87,0,0,1-.76.14H54.93a2.87,2.87,0,0,1-.76-.14,1.73,1.73,0,0,1-.76-.53,1.82,1.82,0,0,1-.38-1,2.77,2.77,0,0,1,0-.39v-.78a3.13,3.13,0,0,1,0-.42,1.82,1.82,0,0,1,.38-1,1.73,1.73,0,0,1,.76-.53,2.89,2.89,0,0,1,.77-.14h2a.87.87,0,0,0,.5-.15.65.65,0,0,0,.21-.57V65.4a.92.92,0,0,0-.18-.61,1.06,1.06,0,0,0-.51-.31,1.64,1.64,0,0,0-.46-.07H54v-1Zm0,4h-.66a1.65,1.65,0,0,0-.47.07.91.91,0,0,0-.5.33,1.14,1.14,0,0,0-.19.58,2.08,2.08,0,0,0,0,.26v.54a2.21,2.21,0,0,0,0,.27,1.15,1.15,0,0,0,.18.57.88.88,0,0,0,.49.32,1.62,1.62,0,0,0,.46.07h1.3a1.62,1.62,0,0,0,.46-.07.91.91,0,0,0,.69-.86V67.41Z"/><path class="cls-1" d="M65.66,71.35v-6a.92.92,0,0,0-.69-.92,1.6,1.6,0,0,0-.45-.07H63.21a1.6,1.6,0,0,0-.45.07.92.92,0,0,0-.69.92v6H61V65a1.82,1.82,0,0,1,.38-1,1.73,1.73,0,0,1,.76-.53,2.85,2.85,0,0,1,.75-.14h1.86a2.86,2.86,0,0,1,.75.14,1.73,1.73,0,0,1,.76.53,1.82,1.82,0,0,1,.38,1v6.31Z"/><path class="cls-1" d="M71.93,71.35H71a2.85,2.85,0,0,1-.75-.14,1.73,1.73,0,0,1-.76-.53,1.82,1.82,0,0,1-.38-1V61.84h1.05v1.61h2.17v.95H70.09v5a.92.92,0,0,0,.69.92,1.62,1.62,0,0,0,.46.07h1.09v.95Z"/><path class="cls-1" d="M75.52,62.4h-1v-1h1.05Zm0,8.95h-1V63.44h1.05Z"/><path class="cls-1" d="M80.76,71.35h-.93a2.85,2.85,0,0,1-.75-.14,1.73,1.73,0,0,1-.76-.53,1.82,1.82,0,0,1-.38-1V61.84h1v1.61h2.25v.95H78.93v5a.92.92,0,0,0,.69.92,1.62,1.62,0,0,0,.46.07h1.09v.95Z"/><path class="cls-1" d="M85.93,63.44h.93a2.87,2.87,0,0,1,.75.14,1.73,1.73,0,0,1,.76.53,1.82,1.82,0,0,1,.38,1v4.54a1.82,1.82,0,0,1-.38,1,1.73,1.73,0,0,1-.76.53,2.87,2.87,0,0,1-.76.14H85a2.87,2.87,0,0,1-.76-.14,1.73,1.73,0,0,1-.76-.53,1.82,1.82,0,0,1-.38-1,2.77,2.77,0,0,1,0-.39v-.78a3.13,3.13,0,0,1,0-.42,1.82,1.82,0,0,1,.38-1,1.73,1.73,0,0,1,.76-.53,2.89,2.89,0,0,1,.77-.14h2a.87.87,0,0,0,.5-.15.65.65,0,0,0,.21-.57V65.4a.92.92,0,0,0-.18-.61,1.06,1.06,0,0,0-.51-.31,1.64,1.64,0,0,0-.46-.07h-2.5v-1Zm0,4h-.66a1.65,1.65,0,0,0-.47.07.91.91,0,0,0-.5.33,1.14,1.14,0,0,0-.19.58,2.08,2.08,0,0,0,0,.26v.54a2.21,2.21,0,0,0,0,.27,1.15,1.15,0,0,0,.18.57.88.88,0,0,0,.49.32,1.62,1.62,0,0,0,.46.07h1.3a1.62,1.62,0,0,0,.46-.07.91.91,0,0,0,.69-.86q0-.48,0-1.11v-1Z"/><path class="cls-1" d="M93.93,71.35H93a2.85,2.85,0,0,1-.75-.14,1.73,1.73,0,0,1-.76-.53,1.82,1.82,0,0,1-.38-1V61.84h1.05v1.61h2.25v.95H92.08v5a.92.92,0,0,0,.69.92,1.62,1.62,0,0,0,.46.07h1.09v.95Z"/><path class="cls-1" d="M97.51,62.4H96.46v-1h1.05Zm0,8.95H96.46V63.44h1.05Z"/><path class="cls-1" d="M102.37,71.41a1.48,1.48,0,0,1-1.05-.34,2,2,0,0,1-.51-1.13L99.6,63.45h1.08l1.12,6.3a1.19,1.19,0,0,0,.23.59.77.77,0,0,0,.58.17h.1a.74.74,0,0,0,.57-.17,1.34,1.34,0,0,0,.23-.59l1.26-6.3h1.07l-1.37,6.49a2.14,2.14,0,0,1-.52,1.13,1.45,1.45,0,0,1-1,.34Z"/><path class="cls-1" d="M112.52,71.35h-2.93a2.86,2.86,0,0,1-.75-.14,1.73,1.73,0,0,1-.76-.53,1.82,1.82,0,0,1-.38-1V65.1a1.82,1.82,0,0,1,.38-1,1.73,1.73,0,0,1,.76-.53,2.87,2.87,0,0,1,.76-.14h1.86a2.87,2.87,0,0,1,.76.14,1.73,1.73,0,0,1,.76.53,1.82,1.82,0,0,1,.38,1,2.81,2.81,0,0,1,0,.39v.78a3.17,3.17,0,0,1,0,.42,1.82,1.82,0,0,1-.38,1,1.73,1.73,0,0,1-.76.53,2.89,2.89,0,0,1-.77.14H108.7v1.07a.88.88,0,0,0,.69.92,1.62,1.62,0,0,0,.46.07h2.68Zm-2-4h.66a1.63,1.63,0,0,0,.47-.07.91.91,0,0,0,.5-.33,1.14,1.14,0,0,0,.19-.58,2.12,2.12,0,0,0,0-.26v-.54a2.27,2.27,0,0,0,0-.27,1.15,1.15,0,0,0-.18-.57.89.89,0,0,0-.49-.32,1.64,1.64,0,0,0-.46-.07h-1.28a1.64,1.64,0,0,0-.46.07.91.91,0,0,0-.69.86v2.11Z"/><path class="cls-1" d="M124.93,71.35v-4h-4.06v4h-1.11V62.87a1.79,1.79,0,0,1,.34-1.13,1.47,1.47,0,0,1,.88-.55,5.79,5.79,0,0,1,.84-.08H124a5.79,5.79,0,0,1,.84.08,1.47,1.47,0,0,1,.88.55,1.79,1.79,0,0,1,.34,1.13v8.48Zm-4.06-5h4.06V63.13a1.09,1.09,0,0,0-.19-.71,1,1,0,0,0-.61-.3h-2.45a1,1,0,0,0-.61.3,1.09,1.09,0,0,0-.19.71Z"/><path class="cls-1" d="M133.13,71.35v-6a.92.92,0,0,0-.69-.92,1.6,1.6,0,0,0-.45-.07h-1.28a1.6,1.6,0,0,0-.45.07.92.92,0,0,0-.69.92v6h-1.05V65a1.82,1.82,0,0,1,.38-1,1.73,1.73,0,0,1,.76-.53,2.85,2.85,0,0,1,.75-.14h1.86a2.86,2.86,0,0,1,.75.14,1.73,1.73,0,0,1,.76.53,1.82,1.82,0,0,1,.38,1v6.31Z"/><path class="cls-1" d="M139.22,63.44h.93a2.87,2.87,0,0,1,.75.14,1.73,1.73,0,0,1,.76.53,1.82,1.82,0,0,1,.38,1v4.54a1.82,1.82,0,0,1-.38,1,1.73,1.73,0,0,1-.76.53,2.87,2.87,0,0,1-.76.14h-1.86a2.87,2.87,0,0,1-.76-.14,1.73,1.73,0,0,1-.76-.53,1.82,1.82,0,0,1-.38-1,2.77,2.77,0,0,1,0-.39v-.78a3.13,3.13,0,0,1,0-.42,1.82,1.82,0,0,1,.38-1,1.73,1.73,0,0,1,.76-.53,2.89,2.89,0,0,1,.77-.14h2a.87.87,0,0,0,.5-.15.65.65,0,0,0,.21-.57V65.4a.92.92,0,0,0-.18-.61,1.06,1.06,0,0,0-.51-.31,1.64,1.64,0,0,0-.46-.07h-2.53v-1Zm0,4h-.66a1.65,1.65,0,0,0-.47.07.91.91,0,0,0-.5.33,1.14,1.14,0,0,0-.19.58,2.08,2.08,0,0,0,0,.26v.54a2.21,2.21,0,0,0,0,.27,1.15,1.15,0,0,0,.18.57.88.88,0,0,0,.49.32,1.62,1.62,0,0,0,.46.07h1.3a1.62,1.62,0,0,0,.46-.07.91.91,0,0,0,.69-.86V67.41Z"/><path class="cls-1" d="M144.34,61.11h1.05v8.06a2.08,2.08,0,0,0,0,.26,1,1,0,0,0,.72.92,1.55,1.55,0,0,0,.31.06h.36v1h-.69a2,2,0,0,1-.57-.12,1.72,1.72,0,0,1-.78-.54,1.8,1.8,0,0,1-.37-1V68.8Z"/><path class="cls-1" d="M151.6,72.88h.65a1.64,1.64,0,0,0,.46-.07.92.92,0,0,0,.69-.92v-.54h-2.74a2.85,2.85,0,0,1-.75-.14,1.73,1.73,0,0,1-.76-.53,1.82,1.82,0,0,1-.38-1V63.44h1.05v5.93a.92.92,0,0,0,.69.92,1.59,1.59,0,0,0,.45.07h1.28a1.59,1.59,0,0,0,.45-.07.92.92,0,0,0,.69-.92V63.44h1.05v8.73a1.82,1.82,0,0,1-.38,1,1.73,1.73,0,0,1-.76.53,2.87,2.87,0,0,1-.75.14H149.8v-.95Z"/><path class="cls-1" d="M159,70.39h1a.82.82,0,0,0,.69-.41,1.73,1.73,0,0,0,.16-.76v-.29a1.06,1.06,0,0,0-.26-.8,1.23,1.23,0,0,0-.85-.24h-1.09a1.65,1.65,0,0,1-1.84-1.21,2.36,2.36,0,0,1-.07-.4v-.94a3.4,3.4,0,0,1,0-.39,1.56,1.56,0,0,1,.77-1.15,3.25,3.25,0,0,1,1.52-.31h2.28v.95h-2.11a4.51,4.51,0,0,0-.59,0,1,1,0,0,0-.68.34,1.23,1.23,0,0,0-.21.75v.38a1.37,1.37,0,0,0,.12.61.66.66,0,0,0,.46.34,2.1,2.1,0,0,0,.4.05h1.2a1.69,1.69,0,0,1,2,1.84v.63a2.19,2.19,0,0,1-.23,1.07,1.65,1.65,0,0,1-.63.64,1.85,1.85,0,0,1-.74.22,9.16,9.16,0,0,1-.93,0h-2.47v-1Z"/><path class="cls-1" d="M165.13,62.4h-1.05v-1h1.05Zm0,8.95h-1.05V63.44h1.05Z"/><path class="cls-1" d="M169.69,70.39h1a.82.82,0,0,0,.69-.41,1.73,1.73,0,0,0,.16-.76v-.29a1.06,1.06,0,0,0-.26-.8,1.23,1.23,0,0,0-.85-.24h-1.09a1.65,1.65,0,0,1-1.84-1.21,2.36,2.36,0,0,1-.07-.4v-.94a3.4,3.4,0,0,1,0-.39,1.56,1.56,0,0,1,.77-1.15,3.25,3.25,0,0,1,1.52-.31H172v.95h-2.07a4.51,4.51,0,0,0-.59,0,1,1,0,0,0-.68.34,1.23,1.23,0,0,0-.21.75v.38a1.37,1.37,0,0,0,.12.61.66.66,0,0,0,.46.34,2.1,2.1,0,0,0,.4.05h1.19a1.69,1.69,0,0,1,1.94,1.85v.63a2.19,2.19,0,0,1-.23,1.07,1.65,1.65,0,0,1-.63.64,1.85,1.85,0,0,1-.74.22,9.16,9.16,0,0,1-.93,0h-2.48v-1Z"/><path class="cls-1" d="M181.59,71.37h-.93a2.87,2.87,0,0,1-.76-.14,1.73,1.73,0,0,1-.76-.53,1.82,1.82,0,0,1-.38-1V65.08a1.82,1.82,0,0,1,.38-1,1.73,1.73,0,0,1,.76-.53,2.87,2.87,0,0,1,.76-.14h1.86a2.87,2.87,0,0,1,.76.14,1.73,1.73,0,0,1,.76.53,1.82,1.82,0,0,1,.38,1V69.7a1.82,1.82,0,0,1-.38,1,1.73,1.73,0,0,1-.76.53,2.87,2.87,0,0,1-.76.14Zm0-7h-.66a1.63,1.63,0,0,0-.46.07.92.92,0,0,0-.69.92v4a.92.92,0,0,0,.69.92,1.62,1.62,0,0,0,.46.07h1.3a1.62,1.62,0,0,0,.46-.07.92.92,0,0,0,.69-.92v-4a.92.92,0,0,0-.69-.92,1.63,1.63,0,0,0-.46-.07Z"/><path class="cls-1" d="M190.42,66.16h-2.58v5.2h-1.05V62.77a1.82,1.82,0,0,1,.38-1,1.73,1.73,0,0,1,.76-.53,2.86,2.86,0,0,1,.75-.14h1.7V62h-1.45a1.64,1.64,0,0,0-.46.07.92.92,0,0,0-.69.92v2.15h2.58Z"/><path class="cls-1" d="M195.85,61.11h5.75v1h-2.32v9.25h-1.11V62.1h-2.32Z"/><path class="cls-1" d="M207.19,71.35h-2.93a2.86,2.86,0,0,1-.75-.14,1.73,1.73,0,0,1-.76-.53,1.82,1.82,0,0,1-.38-1V65.1a1.82,1.82,0,0,1,.38-1,1.73,1.73,0,0,1,.76-.53,2.87,2.87,0,0,1,.76-.14h1.86a2.87,2.87,0,0,1,.76.14,1.73,1.73,0,0,1,.76.53,1.82,1.82,0,0,1,.38,1,2.81,2.81,0,0,1,0,.39v.78a3.17,3.17,0,0,1,0,.42,1.82,1.82,0,0,1-.38,1,1.73,1.73,0,0,1-.76.53,2.89,2.89,0,0,1-.77.14h-2.75v1.07a.88.88,0,0,0,.69.92,1.62,1.62,0,0,0,.46.07h2.68Zm-2-4h.66a1.63,1.63,0,0,0,.47-.07.91.91,0,0,0,.5-.33,1.14,1.14,0,0,0,.19-.58,2.12,2.12,0,0,0,0-.26v-.54a2.27,2.27,0,0,0,0-.27,1.15,1.15,0,0,0-.18-.57.89.89,0,0,0-.49-.32,1.64,1.64,0,0,0-.46-.07h-1.3a1.64,1.64,0,0,0-.46.07.91.91,0,0,0-.69.86v2.11Z"/><path class="cls-1" d="M210.73,68.37a3,3,0,0,1,.36-.66,1,1,0,0,1,.58-.38h0a.89.89,0,0,1-.58-.4,3.44,3.44,0,0,1-.38-.8l-.92-2.67h1.14l.86,2.66a1.66,1.66,0,0,0,.26.53.61.61,0,0,0,.51.2h.09a.59.59,0,0,0,.5-.2,2,2,0,0,0,.27-.53l.88-2.66h1.11l-.92,2.67a3.51,3.51,0,0,1-.37.79.93.93,0,0,1-.59.41h0a1,1,0,0,1,.58.38,2.72,2.72,0,0,1,.37.66l1.17,3h-1.17l-1-2.8a1.37,1.37,0,0,0-.31-.53.65.65,0,0,0-.48-.19h-.09a.68.68,0,0,0-.49.19,1.32,1.32,0,0,0-.31.53l-1.07,2.8h-1.14Z"/><path class="cls-1" d="M220.35,71.35h-.93a2.85,2.85,0,0,1-.75-.14,1.73,1.73,0,0,1-.76-.53,1.82,1.82,0,0,1-.38-1q0-.29,0-.89t0-1.42V61.84h1.05v1.61h2.25v.95h-2.25v5a.92.92,0,0,0,.69.92,1.62,1.62,0,0,0,.46.07h1.09v.95Z"/><path class="cls-1" d="M228.61,63.44v6.31a1.82,1.82,0,0,1-.38,1,1.73,1.73,0,0,1-.76.53,2.86,2.86,0,0,1-.75.14h-1.86a2.85,2.85,0,0,1-.75-.14,1.73,1.73,0,0,1-.76-.53,1.82,1.82,0,0,1-.38-1V63.44h1v6a.92.92,0,0,0,.69.92,1.57,1.57,0,0,0,.45.07h1.28a1.58,1.58,0,0,0,.45-.07.92.92,0,0,0,.69-.92v-6Z"/><path class="cls-1" d="M233.64,63.44h.93a2.87,2.87,0,0,1,.75.14,1.73,1.73,0,0,1,.76.53,1.82,1.82,0,0,1,.38,1q0,.15,0,.42t0,.59q0,.32,0,.66V68q0,.34,0,.66t0,.58v.41a1.82,1.82,0,0,1-.38,1,1.73,1.73,0,0,1-.76.53,2.87,2.87,0,0,1-.76.14H232.7a2.87,2.87,0,0,1-.76-.14,1.73,1.73,0,0,1-.76-.53,1.82,1.82,0,0,1-.38-1,2.77,2.77,0,0,1,0-.39v-.78a3.13,3.13,0,0,1,0-.42,1.82,1.82,0,0,1,.38-1,1.73,1.73,0,0,1,.76-.53,2.89,2.89,0,0,1,.77-.14h2a.87.87,0,0,0,.5-.15.65.65,0,0,0,.21-.57V65.4a.92.92,0,0,0-.18-.61,1.06,1.06,0,0,0-.51-.31,1.64,1.64,0,0,0-.46-.07h-2.53v-1Zm0,4h-.71a1.65,1.65,0,0,0-.47.07.91.91,0,0,0-.5.33,1.14,1.14,0,0,0-.19.58,2.08,2.08,0,0,0,0,.26v.54a2.21,2.21,0,0,0,0,.27,1.15,1.15,0,0,0,.18.57.88.88,0,0,0,.49.32,1.62,1.62,0,0,0,.46.07h1.3a1.62,1.62,0,0,0,.46-.07.91.91,0,0,0,.69-.86q0-.48,0-1.11v-1Z"/><path class="cls-1" d="M238.76,61.11h1.05v8.06a2.08,2.08,0,0,0,0,.26,1,1,0,0,0,.72.92,1.55,1.55,0,0,0,.31.06h.36v1h-.69a2,2,0,0,1-.57-.12,1.72,1.72,0,0,1-.78-.54,1.8,1.8,0,0,1-.37-1V68.8Z"/><path class="cls-1" d="M247.3,71.35V62.87a1.79,1.79,0,0,1,.34-1.13,1.47,1.47,0,0,1,.88-.55,5.79,5.79,0,0,1,.84-.08h2.18a5.79,5.79,0,0,1,.84.08,1.47,1.47,0,0,1,.88.55,1.79,1.79,0,0,1,.34,1.13v6.7a1.79,1.79,0,0,1-.34,1.13,1.47,1.47,0,0,1-.88.55l-.36.05h-4.69Zm1.11-1h3.26a1,1,0,0,0,.61-.3,1.09,1.09,0,0,0,.19-.71V63.13a1.09,1.09,0,0,0-.19-.71,1,1,0,0,0-.61-.3h-2.45a1,1,0,0,0-.61.3,1.09,1.09,0,0,0-.19.71Z"/><path class="cls-1" d="M258.6,63.44h.93a2.87,2.87,0,0,1,.75.14,1.73,1.73,0,0,1,.76.53,1.82,1.82,0,0,1,.38,1v4.54a1.82,1.82,0,0,1-.38,1,1.73,1.73,0,0,1-.76.53,2.87,2.87,0,0,1-.76.14h-1.86a2.87,2.87,0,0,1-.76-.14,1.73,1.73,0,0,1-.76-.53,1.82,1.82,0,0,1-.38-1,2.77,2.77,0,0,1,0-.39v-.78a3.13,3.13,0,0,1,0-.42,1.82,1.82,0,0,1,.38-1,1.73,1.73,0,0,1,.76-.53,2.89,2.89,0,0,1,.77-.14h2a.87.87,0,0,0,.5-.15.65.65,0,0,0,.21-.57V65.4a.92.92,0,0,0-.18-.61,1.06,1.06,0,0,0-.51-.31,1.64,1.64,0,0,0-.46-.07h-2.5v-1Zm0,4h-.67a1.65,1.65,0,0,0-.47.07.91.91,0,0,0-.5.33,1.14,1.14,0,0,0-.19.58,2.08,2.08,0,0,0,0,.26v.54a2.21,2.21,0,0,0,0,.27,1.15,1.15,0,0,0,.16.51.88.88,0,0,0,.49.32,1.62,1.62,0,0,0,.46.07h1.3a1.62,1.62,0,0,0,.46-.07.91.91,0,0,0,.69-.86V67.35Z"/><path class="cls-1" d="M266.56,71.35h-.93a2.85,2.85,0,0,1-.75-.14,1.73,1.73,0,0,1-.76-.53,1.82,1.82,0,0,1-.38-1V61.84h1v1.61H267v.95h-2.25v5a.92.92,0,0,0,.69.92,1.62,1.62,0,0,0,.46.07H267v.95Z"/><path class="cls-1" d="M271.73,63.44h.93a2.87,2.87,0,0,1,.75.14,1.73,1.73,0,0,1,.76.53,1.82,1.82,0,0,1,.38,1v4.54a1.82,1.82,0,0,1-.38,1,1.73,1.73,0,0,1-.76.53,2.87,2.87,0,0,1-.76.14h-1.86a2.87,2.87,0,0,1-.76-.14,1.73,1.73,0,0,1-.76-.53,1.82,1.82,0,0,1-.38-1,2.77,2.77,0,0,1,0-.39v-.78a3.13,3.13,0,0,1,0-.42,1.82,1.82,0,0,1,.38-1,1.73,1.73,0,0,1,.76-.53,2.89,2.89,0,0,1,.77-.14h2a.87.87,0,0,0,.5-.15.65.65,0,0,0,.21-.57V65.4a.92.92,0,0,0-.18-.61,1.06,1.06,0,0,0-.51-.31,1.64,1.64,0,0,0-.46-.07h-2.53v-1Zm0,4h-.66a1.65,1.65,0,0,0-.47.07.91.91,0,0,0-.5.33,1.14,1.14,0,0,0-.19.58,2.08,2.08,0,0,0,0,.26v.54a2.21,2.21,0,0,0,0,.27,1.15,1.15,0,0,0,.18.57.88.88,0,0,0,.49.32,1.62,1.62,0,0,0,.46.07h1.3a1.62,1.62,0,0,0,.46-.07.91.91,0,0,0,.69-.86V67.41Z"/></svg>